<svg xmlns="http://www.w3.org/2000/svg" xmlns:xlink="http://www.w3.org/1999/xlink" viewBox="0 0 366.17 368.87"><defs><style>.cls-1,.cls-4{fill:#0f4c81;}.cls-1,.cls-2,.cls-28,.cls-3,.cls-6{stroke:#263238;}.cls-1,.cls-11,.cls-2,.cls-28,.cls-29,.cls-3,.cls-6{stroke-linecap:round;stroke-linejoin:round;}.cls-12,.cls-19,.cls-2,.cls-5,.cls-8{fill:#fff;}.cls-3,.cls-7{fill:#263238;}.cls-5{opacity:0.7;}.cls-11,.cls-28,.cls-29,.cls-6{fill:none;}.cls-8{opacity:0.5;}.cls-9{clip-path:url(#clip-path);}.cls-10{opacity:0.13;}.cls-11,.cls-29{stroke:#fff;}.cls-13{clip-path:url(#clip-path-2);}.cls-14{clip-path:url(#clip-path-3);}.cls-15{clip-path:url(#clip-path-4);}.cls-16{clip-path:url(#clip-path-5);}.cls-17{clip-path:url(#clip-path-6);}.cls-18{clip-path:url(#clip-path-7);}.cls-19{opacity:0.53;}.cls-20{opacity:0.14;}.cls-21{clip-path:url(#clip-path-8);}.cls-22{clip-path:url(#clip-path-9);}.cls-23{clip-path:url(#clip-path-10);}.cls-24{clip-path:url(#clip-path-11);}.cls-25{clip-path:url(#clip-path-12);}.cls-26{clip-path:url(#clip-path-13);}.cls-27{clip-path:url(#clip-path-14);}.cls-28{stroke-width:2px;}.cls-29{stroke-width:0.75px;}.cls-30{clip-path:url(#clip-path-15);}</style><clipPath id="clip-path" transform="translate(0.5 -5.7)"><path class="cls-1" d="M221.53,167.22s26.05-3.09,43.18,10.28,31.88,69.24,31.54,96S286,313.58,260.94,324.54s-71.63,6.86-97.68-1.37-34.62-37-34.28-52.44,17.48-33.25,23.31-37,22.28-11.65,30.51-24S203,170.65,221.53,167.22Z"/></clipPath><clipPath id="clip-path-2" transform="translate(0.5 -5.7)"><path class="cls-2" d="M222.45,170s9.33,3,10.67,5.33.33,18.67.33,20.67-1.17-1.17-2.17-3.5-4.5-5.84-5.66-5.5-1.84,1.66-1.84,3.83-2.66,5.17-5,6.83-4.5,3.34-4.5,3.34-4.83-7-6-8.84-1-5.66-1.16-7-3.17,3.67-3.84,2.34,1.5-2.5,3.84-6.17,1.66-7.5,5.16-10.17S219.78,169.3,222.45,170Z"/></clipPath><clipPath id="clip-path-3" transform="translate(0.5 -5.7)"><path class="cls-2" d="M244.53,237.55s5.75-8.25,12.75-9,15.5,5,15.75,7,2,12.75.75,14.25-6,2.75-15.25-.25S245.53,242.8,244.53,237.55Z"/></clipPath><clipPath id="clip-path-4" transform="translate(0.5 -5.7)"><path class="cls-2" d="M264,239.8s9.39,3.72,9.75,11c.21,4-6.5,5.75-13.5,5.75s-17-8.75-23.5-12.5-21.5-12.5-23.25-13.25-7.75,1.25-10.25,2a33.81,33.81,0,0,1-7.25.75s-3.5,5.5-5.25,5.5,3.75-8.25,4.5-10,13-5.75,14.5-5.75,36.5,8.75,41.75,10.75S264,239.8,264,239.8Z"/></clipPath><clipPath id="clip-path-5" transform="translate(0.5 -5.7)"><polygon class="cls-2" points="198.53 227.05 225.31 245.99 164.06 244.24 143.53 227.3 198.53 227.05"/></clipPath><clipPath id="clip-path-6" transform="translate(0.5 -5.7)"><path class="cls-2" d="M178.28,245.8s-22-19.25-43.75-25.75-26.25-5.5-25.75,4.25,11,60.75,18,73.75,15.75,36.75,15.5,41.25-8.75,17.75-16.25,22.5-6.75,10.5-2,11.5,10.25,2.75,26.5-7.75,23-25.5,22-29.25-11.5-8.75-15.75-16.25S145.53,284.55,145,271.8a75.76,75.76,0,0,0-5-23.5s27.5,5,35.5,10Z"/></clipPath><clipPath id="clip-path-7" transform="translate(0.5 -5.7)"><path class="cls-3" d="M156.78,320.05c.32.56.69,1.1,1.07,1.64a25.72,25.72,0,0,0-14.07,5.86,43.94,43.94,0,0,0-3.41,3.31c-4.8-6.44-10.18-26.75-16.27-35.11-15.71-21.59-14.82-61.7-15.32-71.45s4-10.75,25.75-4.25,43.75,25.75,43.75,25.75l-2.75,12.5c-8-5-35.5-10-35.5-10a75.76,75.76,0,0,1,5,23.5C145.53,284.55,152.53,312.55,156.78,320.05Z"/></clipPath><clipPath id="clip-path-8" transform="translate(0.5 -5.7)"><path class="cls-2" d="M243.78,249.8s8,4.5,10.75,9.5-9.08,13.33-21.58,12.83-35.42-14.08-35.42-14.08-.25,22-4.5,30-23.75,27.5-31.5,32.5-33.75,23.75-37.75,26.75-11.5,8.5-13.25,8.75-20-22-24.25-29.5-8-23.25-6.5-26.75,4.5-.5,7.5,2,30.5,20.75,33,22a27.44,27.44,0,0,0,4.25,1.75s22.5-21.5,34.5-38,13-37.75,17.5-45.75,11-11.5,20.75-10.5S227.28,237.55,243.78,249.8Z"/></clipPath><clipPath id="clip-path-9" transform="translate(0.5 -5.7)"><path class="cls-3" d="M126.09,324.05c5.28-5.16,25.12-31.77,32.94-47.07,11.47-22.42,12.71-30.06,17.21-38.06s11.29-8.62,21-7.62,27.2,2.81,48.6,14.95c0,0,9,4.88,11.74,9.88s-7.26,17.59-24.67,16c-12.46-1.14-35.42-14.08-35.42-14.08s-.25,22-4.5,30-23.75,27.5-31.5,32.5c-4.91,3.17-17.16,11.87-26.49,18.57C132.7,330.75,128.57,326.17,126.09,324.05Z"/></clipPath><clipPath id="clip-path-10" transform="translate(0.5 -5.7)"><path class="cls-2" d="M86.28,326.55c-4.25-7.5-8-23.25-6.5-26.75.87-2,2.25-1.87,3.83-.89-1,4.67,0,13.68,5.17,23.39,4.61,8.66,18.85,24,26,31.42a17,17,0,0,1-4.28,2.33C108.78,356.3,90.53,334.05,86.28,326.55Z"/></clipPath><clipPath id="clip-path-11" transform="translate(0.5 -5.7)"><path class="cls-2" d="M126,361.8a32.71,32.71,0,0,0,6.67-6c5.16-2.2,12-5,18.08-8.76,6.5-4,5-6.5,8.75-10.25,2.88-2.88,8.54-3.25,11-3.27a6.81,6.81,0,0,1,2,2.77c1,3.75-5.75,18.75-22,29.25s-21.75,8.75-26.5,7.75S118.53,366.55,126,361.8Z"/></clipPath><clipPath id="clip-path-12" transform="translate(0.5 -5.7)"><path class="cls-3" d="M124.78,363.55c6.5-3.75,19.75-6.25,28.25-12s6.25-10.75,12.5-14.75a6.35,6.35,0,0,1,7-.4c.87,3.9-5.9,18.73-22,29.15s-21.75,8.75-26.5,7.75c-3.15-.67-4.52-3.43-2.9-6.6A13.79,13.79,0,0,1,124.78,363.55Z"/></clipPath><clipPath id="clip-path-13" transform="translate(0.5 -5.7)"><path class="cls-2" d="M225.13,157s-1.16,12.63-1.65,16.62-1.61,15.45-2.76,19.24-7.42,10.38-8,8.86-3.71-11.83-2.47-17.95,1.62-11.44.85-13-3.54-3.31-3.54-3.31a100.43,100.43,0,0,0,9.39-5.47C221.38,159,224.52,155.65,225.13,157Z"/></clipPath><clipPath id="clip-path-14" transform="translate(0.5 -5.7)"><path class="cls-2" d="M225.6,158.81s-7.2,6-12.73,8.2-14,2.06-15.2-.81,2.09-25.6,4.94-31.58,5.9-6.08,10.92-6.54,15.09,3.64,16.86,8.5-.25,11.74-1.71,15.82A30.37,30.37,0,0,1,225.6,158.81Z"/></clipPath><clipPath id="clip-path-15" transform="translate(0.5 -5.7)"><path class="cls-2" d="M223.44,152.85s3.23-4.66,6.64-2.79.75,8.52-1.3,10.83-6-2-6.41-3.08"/></clipPath></defs><g id="Background_Simple" data-name="Background Simple"><path class="cls-4" d="M21.39,268.08c-7.47-61,28.75-142.2,66.3-175.7,67.79-60.5,124.11-48.8,167.92-27.13s50.06,94,80.31,126.73,47.45,76.75,1.56,120.58-82.92,21.55-130.89,18.78-111.6,19.1-146,.07C36.54,318.13,24.7,295.07,21.39,268.08Z" transform="translate(0.5 -5.7)"/><path class="cls-5" d="M21.39,268.08c-7.47-61,28.75-142.2,66.3-175.7,67.79-60.5,124.11-48.8,167.92-27.13s50.06,94,80.31,126.73,47.45,76.75,1.56,120.58-82.92,21.55-130.89,18.78-111.6,19.1-146,.07C36.54,318.13,24.7,295.07,21.39,268.08Z" transform="translate(0.5 -5.7)"/></g><g id="Background"><line class="cls-6" x1="211.74" y1="260.23" x2="211.74" y2="35.29"/><polyline class="cls-6" points="357.96 262.45 216.07 262.45 0.5 332.04"/><path class="cls-7" d="M292.82,262.88h9.83V100.82H282.42l8.73-31.51h26.2l8.73,31.51H305.85V262.88h9.83a9.6,9.6,0,0,1,9.59,9.42s0,.05,0,.07v.11h0c-.3,2.26-9.58,4.08-21,4.08s-20.7-1.82-21-4.08h0A9.6,9.6,0,0,1,292.82,262.88Z" transform="translate(0.5 -5.7)"/><path class="cls-3" d="M18.6,6.2V244.3l143.66-23.64V29.84Zm3.72,4.5L95.37,22.32v66.3L22.32,84.48ZM95.37,155.49,22.32,158.9V92.24l73.05,3.35Zm5.93-59.62,58.55,2.68v53.93l-58.55,2.73Zm58.55-63.29V92.27L101.3,89V23.27Zm0,185.34-58.55,9.32V162.13l58.55-3.37ZM22.32,239.8V166.67l73.05-4.2v65.71Z" transform="translate(0.5 -5.7)"/></g><g id="Character"><ellipse class="cls-4" cx="212.32" cy="319.42" rx="114.95" ry="35.81"/><ellipse class="cls-8" cx="212.32" cy="319.42" rx="114.95" ry="35.81"/><path class="cls-4" d="M221.53,167.22s26.05-3.09,43.18,10.28,31.88,69.24,31.54,96S286,313.58,260.94,324.54s-71.63,6.86-97.68-1.37-34.62-37-34.28-52.44,17.48-33.25,23.31-37,22.28-11.65,30.51-24S203,170.65,221.53,167.22Z" transform="translate(0.5 -5.7)"/><g class="cls-9"><path class="cls-10" d="M158.48,321.35c9.85-1.33,21.53-4,30.37-9.37,18.67-11.33,23.34-32.67,30-40.67s18.67-7.33,24-16-3.33-72.66,12-76.66a34.89,34.89,0,0,1,9.57-1.37c.1.08.2.14.29.22,17.14,13.37,31.88,69.24,31.54,96S286,313.58,260.94,324.54s-71.63,6.86-97.68-1.37A41.12,41.12,0,0,1,158.48,321.35Z" transform="translate(0.5 -5.7)"/></g><path class="cls-6" d="M221.53,167.22s26.05-3.09,43.18,10.28,31.88,69.24,31.54,96S286,313.58,260.94,324.54s-71.63,6.86-97.68-1.37-34.62-37-34.28-52.44,17.48-33.25,23.31-37,22.28-11.65,30.51-24S203,170.65,221.53,167.22Z" transform="translate(0.5 -5.7)"/><path class="cls-3" d="M231.78,179.3s17,3.25,20,6.25,15.5,50,15.5,50a18.6,18.6,0,0,0-10.5.5c-5,2-5.5,7.25-6,9.75a89.46,89.46,0,0,0-.75,9s-50.53-4.51-61.28-7-27.11-3.65-27.11-3.65,27.64-62.34,31.89-64.59,22-2.5,24.5-2S231.78,179.3,231.78,179.3Z" transform="translate(0.5 -5.7)"/><line class="cls-11" x1="249.03" y1="231.35" x2="244.78" y2="196.6"/><line class="cls-11" x1="245.78" y1="205.85" x2="240.03" y2="198.35"/><path class="cls-11" d="M228,216.05s-16.25-5.25-27-5.25" transform="translate(0.5 -5.7)"/><path class="cls-11" d="M212.7,201.72l1.08,8.33s-2.75,0-3,1.25a3.32,3.32,0,0,0,1,2.5s-7.75,4.25-8.75,9.25" transform="translate(0.5 -5.7)"/><path class="cls-12" d="M222.45,170s9.33,3,10.67,5.33.33,18.67.33,20.67-1.17-1.17-2.17-3.5-4.5-5.84-5.66-5.5-1.84,1.66-1.84,3.83-2.66,5.17-5,6.83-4.5,3.34-4.5,3.34-4.83-7-6-8.84-1-5.66-1.16-7-3.17,3.67-3.84,2.34,1.5-2.5,3.84-6.17,1.66-7.5,5.16-10.17S219.78,169.3,222.45,170Z" transform="translate(0.5 -5.7)"/><g class="cls-13"><path class="cls-4" d="M233.12,175.3c.89,1.56.74,9.34.54,14.95-2.12-2.74-6.51-7.92-9.06-6.94-3.23,1.25-4.48,10.46-4.48,10.46l2.19-23.84.14,0S231.78,173,233.12,175.3Z" transform="translate(0.5 -5.7)"/><path class="cls-8" d="M233.12,175.3c.89,1.56.74,9.34.54,14.95-2.12-2.74-6.51-7.92-9.06-6.94-3.23,1.25-4.48,10.46-4.48,10.46l2.19-23.84.14,0S231.78,173,233.12,175.3Z" transform="translate(0.5 -5.7)"/></g><path class="cls-6" d="M222.45,170s9.33,3,10.67,5.33.33,18.67.33,20.67-1.17-1.17-2.17-3.5-4.5-5.84-5.66-5.5-1.84,1.66-1.84,3.83-2.66,5.17-5,6.83-4.5,3.34-4.5,3.34-4.83-7-6-8.84-1-5.66-1.16-7-3.17,3.67-3.84,2.34,1.5-2.5,3.84-6.17,1.66-7.5,5.16-10.17S219.78,169.3,222.45,170Z" transform="translate(0.5 -5.7)"/><path class="cls-12" d="M244.53,237.55s5.75-8.25,12.75-9,15.5,5,15.75,7,2,12.75.75,14.25-6,2.75-15.25-.25S245.53,242.8,244.53,237.55Z" transform="translate(0.5 -5.7)"/><g class="cls-14"><path class="cls-4" d="M267.93,249.55s2-5.73,1-7.72-5-5-7.47-8,5.83,1.69,6.23,0c.32-1.36-4.39-4.08-6.24-5.09,5.82,1.12,11.39,5.17,11.59,6.78.25,2,2,12.75.75,14.25-.64.77-2.23,1.48-4.88,1.57C268.3,250.31,267.93,249.55,267.93,249.55Z" transform="translate(0.5 -5.7)"/><path class="cls-8" d="M267.93,249.55s2-5.73,1-7.72-5-5-7.47-8,5.83,1.69,6.23,0c.32-1.36-4.39-4.08-6.24-5.09,5.82,1.12,11.39,5.17,11.59,6.78.25,2,2,12.75.75,14.25-.64.77-2.23,1.48-4.88,1.57C268.3,250.31,267.93,249.55,267.93,249.55Z" transform="translate(0.5 -5.7)"/></g><path class="cls-6" d="M244.53,237.55s5.75-8.25,12.75-9,15.5,5,15.75,7,2,12.75.75,14.25-6,2.75-15.25-.25S245.53,242.8,244.53,237.55Z" transform="translate(0.5 -5.7)"/><path class="cls-12" d="M264,239.8s9.39,3.72,9.75,11c.21,4-6.5,5.75-13.5,5.75s-17-8.75-23.5-12.5-21.5-12.5-23.25-13.25-7.75,1.25-10.25,2a33.81,33.81,0,0,1-7.25.75s-3.5,5.5-5.25,5.5,3.75-8.25,4.5-10,13-5.75,14.5-5.75,36.5,8.75,41.75,10.75S264,239.8,264,239.8Z" transform="translate(0.5 -5.7)"/><g class="cls-15"><path class="cls-4" d="M244.43,238.76c-14.3-7.15-34.65-15.46-34.65-15.46,1.5,0,36.5,8.75,41.75,10.75S264,239.8,264,239.8s9.39,3.72,9.75,11c.21,4-6.5,5.75-13.5,5.75s-17-8.75-23.5-12.5l-3.93-2.28C242.4,243,255.16,244.12,244.43,238.76Z" transform="translate(0.5 -5.7)"/><path class="cls-8" d="M244.43,238.76c-14.3-7.15-34.65-15.46-34.65-15.46,1.5,0,36.5,8.75,41.75,10.75S264,239.8,264,239.8s9.39,3.72,9.75,11c.21,4-6.5,5.75-13.5,5.75s-17-8.75-23.5-12.5l-3.93-2.28C242.4,243,255.16,244.12,244.43,238.76Z" transform="translate(0.5 -5.7)"/></g><path class="cls-6" d="M264,239.8s9.39,3.72,9.75,11c.21,4-6.5,5.75-13.5,5.75s-17-8.75-23.5-12.5-21.5-12.5-23.25-13.25-7.75,1.25-10.25,2a33.81,33.81,0,0,1-7.25.75s-3.5,5.5-5.25,5.5,3.75-8.25,4.5-10,13-5.75,14.5-5.75,36.5,8.75,41.75,10.75S264,239.8,264,239.8Z" transform="translate(0.5 -5.7)"/><path class="cls-2" d="M190.92,184.2l7.61,42.85-55,.25-8.18-40.64a2.53,2.53,0,0,1,2.4-3l50.6-1.52A2.52,2.52,0,0,1,190.92,184.2Z" transform="translate(0.5 -5.7)"/><polygon class="cls-12" points="199.03 221.35 225.81 240.29 164.56 238.54 144.03 221.6 199.03 221.35"/><g class="cls-16"><polygon class="cls-4" points="199.03 221.35 225.81 240.29 164.56 238.54 144.03 221.6 199.03 221.35"/><polygon class="cls-8" points="199.03 221.35 225.81 240.29 164.56 238.54 144.03 221.6 199.03 221.35"/></g><polygon class="cls-6" points="199.03 221.35 225.81 240.29 164.56 238.54 144.03 221.6 199.03 221.35"/><path class="cls-12" d="M178.28,245.8s-22-19.25-43.75-25.75-26.25-5.5-25.75,4.25,11,60.75,18,73.75,15.75,36.75,15.5,41.25-8.75,17.75-16.25,22.5-6.75,10.5-2,11.5,10.25,2.75,26.5-7.75,23-25.5,22-29.25-11.5-8.75-15.75-16.25S145.53,284.55,145,271.8a75.76,75.76,0,0,0-5-23.5s27.5,5,35.5,10Z" transform="translate(0.5 -5.7)"/><g class="cls-17"><path class="cls-4" d="M178.28,245.8s-22-19.25-43.75-25.75-26.25-5.5-25.75,4.25,11,60.75,18,73.75,15.75,36.75,15.5,41.25-8.75,17.75-16.25,22.5-6.75,10.5-2,11.5,10.25,2.75,26.5-7.75,23-25.5,22-29.25-11.5-8.75-15.75-16.25S145.53,284.55,145,271.8a75.76,75.76,0,0,0-5-23.5s27.5,5,35.5,10Z" transform="translate(0.5 -5.7)"/><path class="cls-8" d="M178.28,245.8s-22-19.25-43.75-25.75-26.25-5.5-25.75,4.25,11,60.75,18,73.75,15.75,36.75,15.5,41.25-8.75,17.75-16.25,22.5-6.75,10.5-2,11.5,10.25,2.75,26.5-7.75,23-25.5,22-29.25-11.5-8.75-15.75-16.25S145.53,284.55,145,271.8a75.76,75.76,0,0,0-5-23.5s27.5,5,35.5,10Z" transform="translate(0.5 -5.7)"/></g><path class="cls-6" d="M178.28,245.8s-22-19.25-43.75-25.75-26.25-5.5-25.75,4.25,11,60.75,18,73.75,15.75,36.75,15.5,41.25-8.75,17.75-16.25,22.5-6.75,10.5-2,11.5,10.25,2.75,26.5-7.75,23-25.5,22-29.25-11.5-8.75-15.75-16.25S145.53,284.55,145,271.8a75.76,75.76,0,0,0-5-23.5s27.5,5,35.5,10Z" transform="translate(0.5 -5.7)"/><path class="cls-2" d="M156.78,320.05c.32.56.69,1.1,1.07,1.64a25.72,25.72,0,0,0-14.07,5.86,43.94,43.94,0,0,0-3.41,3.31,219.78,219.78,0,0,0-13.59-32.81c-7-13-17.5-64-18-73.75s4-10.75,25.75-4.25,43.75,25.75,43.75,25.75l-2.75,12.5c-8-5-35.5-10-35.5-10a75.76,75.76,0,0,1,5,23.5C145.53,284.55,152.53,312.55,156.78,320.05Z" transform="translate(0.5 -5.7)"/><path class="cls-7" d="M156.78,320.05c.32.56.69,1.1,1.07,1.64a25.72,25.72,0,0,0-14.07,5.86,43.94,43.94,0,0,0-3.41,3.31c-4.8-6.44-10.18-26.75-16.27-35.11-15.71-21.59-14.82-61.7-15.32-71.45s4-10.75,25.75-4.25,43.75,25.75,43.75,25.75l-2.75,12.5c-8-5-35.5-10-35.5-10a75.76,75.76,0,0,1,5,23.5C145.53,284.55,152.53,312.55,156.78,320.05Z" transform="translate(0.5 -5.7)"/><g class="cls-18"><path class="cls-19" d="M156.78,320.05c.32.56.69,1.1,1.07,1.64a25.72,25.72,0,0,0-14.07,5.86,43.94,43.94,0,0,0-3.41,3.31c-4.8-6.44-10.18-26.75-16.27-35.11-15.71-21.59-14.82-61.7-15.32-71.45s4-10.75,25.75-4.25,43.75,25.75,43.75,25.75l-2.75,12.5c-8-5-35.5-10-35.5-10a75.76,75.76,0,0,1,5,23.5C145.53,284.55,152.53,312.55,156.78,320.05Z" transform="translate(0.5 -5.7)"/><path class="cls-20" d="M119.35,223c.4-3.55,39.07,12.82,55.37,19.88,2.27,1.8,3.56,2.94,3.56,2.94l-2.75,12.5c-8-5-35.5-10-35.5-10a75.76,75.76,0,0,1,5,23.5c.5,12.75,7.5,40.75,11.75,48.25.32.56.69,1.1,1.07,1.64a28.38,28.38,0,0,0-8,2.07c-6.05-12.81-12.47-27.65-15.52-39.28C128.85,263.48,118.85,227.48,119.35,223Z" transform="translate(0.5 -5.7)"/><path class="cls-6" d="M140,248.3s-7.5-15.25-14-21.5" transform="translate(0.5 -5.7)"/></g><path class="cls-6" d="M156.78,320.05c.32.56.69,1.1,1.07,1.64a25.72,25.72,0,0,0-14.07,5.86,43.94,43.94,0,0,0-3.41,3.31c-4.8-6.44-10.18-26.75-16.27-35.11-15.71-21.59-14.82-61.7-15.32-71.45s4-10.75,25.75-4.25,43.75,25.75,43.75,25.75l-2.75,12.5c-8-5-35.5-10-35.5-10a75.76,75.76,0,0,1,5,23.5C145.53,284.55,152.53,312.55,156.78,320.05Z" transform="translate(0.5 -5.7)"/><path class="cls-3" d="M211.24,265.93a86,86,0,0,1-23.65-4.45c-11.31-4.12,9.26-11.66,17.14-7.54A11.69,11.69,0,0,1,211.24,265.93Z" transform="translate(0.5 -5.7)"/><path class="cls-12" d="M243.78,249.8s8,4.5,10.75,9.5-9.08,13.33-21.58,12.83-35.42-14.08-35.42-14.08-.25,22-4.5,30-23.75,27.5-31.5,32.5-33.75,23.75-37.75,26.75-11.5,8.5-13.25,8.75-20-22-24.25-29.5-8-23.25-6.5-26.75,4.5-.5,7.5,2,30.5,20.75,33,22a27.44,27.44,0,0,0,4.25,1.75s22.5-21.5,34.5-38,13-37.75,17.5-45.75,11-11.5,20.75-10.5S227.28,237.55,243.78,249.8Z" transform="translate(0.5 -5.7)"/><g class="cls-21"><path class="cls-4" d="M138,337c-6.68,4.78-12.49,9-14.22,10.3-4,3-11.5,8.5-13.25,8.75-.62.09-3.32-2.66-6.73-6.57l28.63-18.42Z" transform="translate(0.5 -5.7)"/><path class="cls-8" d="M138,337c-6.68,4.78-12.49,9-14.22,10.3-4,3-11.5,8.5-13.25,8.75-.62.09-3.32-2.66-6.73-6.57l28.63-18.42Z" transform="translate(0.5 -5.7)"/></g><path class="cls-6" d="M243.78,249.8s8,4.5,10.75,9.5-9.08,13.33-21.58,12.83-35.42-14.08-35.42-14.08-.25,22-4.5,30-23.75,27.5-31.5,32.5-33.75,23.75-37.75,26.75-11.5,8.5-13.25,8.75-20-22-24.25-29.5-8-23.25-6.5-26.75,4.5-.5,7.5,2,30.5,20.75,33,22a27.44,27.44,0,0,0,4.25,1.75s22.5-21.5,34.5-38,13-37.75,17.5-45.75,11-11.5,20.75-10.5S227.28,237.55,243.78,249.8Z" transform="translate(0.5 -5.7)"/><path class="cls-7" d="M126.09,324.05c5.28-5.16,25.12-31.77,32.94-47.07,11.47-22.42,12.71-30.06,17.21-38.06s11.29-8.62,21-7.62,27.2,2.81,48.6,14.95c0,0,9,4.88,11.74,9.88s-7.26,17.59-24.67,16c-12.46-1.14-35.42-14.08-35.42-14.08s-.25,22-4.5,30-23.75,27.5-31.5,32.5c-4.91,3.17-17.16,11.87-26.49,18.57C132.7,330.75,128.57,326.17,126.09,324.05Z" transform="translate(0.5 -5.7)"/><g class="cls-22"><path class="cls-19" d="M126.09,324.05c5.28-5.16,25.12-31.77,32.94-47.07,11.47-22.42,12.71-30.06,17.21-38.06s11.29-8.62,21-7.62,27.2,2.81,48.6,14.95c0,0,9,4.88,11.74,9.88s-7.26,17.59-24.67,16c-12.46-1.14-35.42-14.08-35.42-14.08s-.25,22-4.5,30-23.75,27.5-31.5,32.5c-4.91,3.17-17.16,11.87-26.49,18.57C132.7,330.75,128.57,326.17,126.09,324.05Z" transform="translate(0.5 -5.7)"/><path class="cls-20" d="M176.35,288.48c7.5-19,3-57,24-52,15.31,3.64,43.35,16.58,57.44,23.33-1.66,5.74-10.86,13.6-24.84,12.32-12.46-1.14-35.42-14.08-35.42-14.08s-.25,22-4.5,30-23.75,27.5-31.5,32.5c-4.91,3.17-17.16,11.87-26.49,18.57a35.74,35.74,0,0,0-3.49-8.37C150.17,317,172.17,299.09,176.35,288.48Z" transform="translate(0.5 -5.7)"/><line class="cls-6" x1="198.03" y1="252.35" x2="198.78" y2="239.35"/></g><path class="cls-6" d="M126.09,324.05c5.28-5.16,25.12-31.77,32.94-47.07,11.47-22.42,12.71-30.06,17.21-38.06s11.29-8.62,21-7.62,27.2,2.81,48.6,14.95c0,0,9,4.88,11.74,9.88s-7.26,17.59-24.67,16c-12.46-1.14-35.42-14.08-35.42-14.08s-.25,22-4.5,30-23.75,27.5-31.5,32.5c-4.91,3.17-17.16,11.87-26.49,18.57C132.7,330.75,128.57,326.17,126.09,324.05Z" transform="translate(0.5 -5.7)"/><path class="cls-3" d="M123.78,347.3c-4,3-11.5,8.5-13.25,8.75s-20-22-24.25-29.5-8-23.25-6.5-26.75,4.5-.5,7.5,2,30.5,20.75,33,22c.66.33,1.26.6,1.79.83.73,1.37,1.6,3.49,1,4.92-1,2.25-5.25,5.25-5.25,5.25l7.57,11.34Z" transform="translate(0.5 -5.7)"/><path class="cls-12" d="M86.28,326.55c-4.25-7.5-8-23.25-6.5-26.75.87-2,2.25-1.87,3.83-.89-1,4.67,0,13.68,5.17,23.39,4.61,8.66,18.85,24,26,31.42a17,17,0,0,1-4.28,2.33C108.78,356.3,90.53,334.05,86.28,326.55Z" transform="translate(0.5 -5.7)"/><g class="cls-23"><path class="cls-4" d="M110.28,356a.85.85,0,0,1-.21-.11l-.07,0c-.1-.07-.22-.15-.34-.25l-.12-.1-.29-.24-.16-.15-.39-.36-.24-.23-.33-.32-.28-.28c-.09-.09-.18-.19-.28-.28l-.71-.75-.12-.12-.44-.48-.18-.19c-.52-.57-1.08-1.19-1.65-1.84l0-.06c-.2-.22-.41-.46-.61-.7h0l4.37-2.81c2.49,2.7,4.8,5.14,6.64,7.05h0l-.68.44-.09.06-.62.39h0l-1,.57-.28.16-.28.15-.32.16-.22.1a2.58,2.58,0,0,1-.31.13l-.15.06a1.52,1.52,0,0,1-.36.1.35.35,0,0,1-.18,0Z" transform="translate(0.5 -5.7)"/><path class="cls-8" d="M110.28,356a.85.85,0,0,1-.21-.11l-.07,0c-.1-.07-.22-.15-.34-.25l-.12-.1-.29-.24-.16-.15-.39-.36-.24-.23-.33-.32-.28-.28c-.09-.09-.18-.19-.28-.28l-.71-.75-.12-.12-.44-.48-.18-.19c-.52-.57-1.08-1.19-1.65-1.84l0-.06c-.2-.22-.41-.46-.61-.7h0l4.37-2.81c2.49,2.7,4.8,5.14,6.64,7.05h0l-.68.44-.09.06-.62.39h0l-1,.57-.28.16-.28.15-.32.16-.22.1a2.58,2.58,0,0,1-.31.13l-.15.06a1.52,1.52,0,0,1-.36.1.35.35,0,0,1-.18,0Z" transform="translate(0.5 -5.7)"/></g><path class="cls-6" d="M86.28,326.55c-4.25-7.5-8-23.25-6.5-26.75.87-2,2.25-1.87,3.83-.89-1,4.67,0,13.68,5.17,23.39,4.61,8.66,18.85,24,26,31.42a17,17,0,0,1-4.28,2.33C108.78,356.3,90.53,334.05,86.28,326.55Z" transform="translate(0.5 -5.7)"/><path class="cls-3" d="M126,361.8c7.5-4.75,16-18,16.25-22.5a7.73,7.73,0,0,0-.11-1.47,7.14,7.14,0,0,1,4.11,1.47,95.58,95.58,0,0,1,9.75-7.75,20.42,20.42,0,0,1,9-2.69c3.63,3,7,5.4,7.53,7.44,1,3.75-5.75,18.75-22,29.25s-21.75,8.75-26.5,7.75S118.53,366.55,126,361.8Z" transform="translate(0.5 -5.7)"/><path class="cls-2" d="M174,336.8" transform="translate(0.5 -5.7)"/><path class="cls-12" d="M126,361.8a32.71,32.71,0,0,0,6.67-6c5.16-2.2,12-5,18.08-8.76,6.5-4,5-6.5,8.75-10.25,2.88-2.88,8.54-3.25,11-3.27a6.81,6.81,0,0,1,2,2.77c1,3.75-5.75,18.75-22,29.25s-21.75,8.75-26.5,7.75S118.53,366.55,126,361.8Z" transform="translate(0.5 -5.7)"/><g class="cls-24"><path class="cls-4" d="M126,361.8a32.71,32.71,0,0,0,6.67-6c5.16-2.2,12-5,18.08-8.76,6.5-4,5-6.5,8.75-10.25,2.88-2.88,8.54-3.25,11-3.27a6.81,6.81,0,0,1,2,2.77c1,3.75-5.75,18.75-22,29.25s-21.75,8.75-26.5,7.75S118.53,366.55,126,361.8Z" transform="translate(0.5 -5.7)"/><path class="cls-8" d="M126,361.8a32.71,32.71,0,0,0,6.67-6c5.16-2.2,12-5,18.08-8.76,6.5-4,5-6.5,8.75-10.25,2.88-2.88,8.54-3.25,11-3.27a6.81,6.81,0,0,1,2,2.77c1,3.75-5.75,18.75-22,29.25s-21.75,8.75-26.5,7.75S118.53,366.55,126,361.8Z" transform="translate(0.5 -5.7)"/></g><path class="cls-6" d="M126,361.8a32.71,32.71,0,0,0,6.67-6c5.16-2.2,12-5,18.08-8.76,6.5-4,5-6.5,8.75-10.25,2.88-2.88,8.54-3.25,11-3.27a6.81,6.81,0,0,1,2,2.77c1,3.75-5.75,18.75-22,29.25s-21.75,8.75-26.5,7.75S118.53,366.55,126,361.8Z" transform="translate(0.5 -5.7)"/><path class="cls-7" d="M124.78,363.55c6.5-3.75,19.75-6.25,28.25-12s6.25-10.75,12.5-14.75a6.35,6.35,0,0,1,7-.4c.87,3.9-5.9,18.73-22,29.15s-21.75,8.75-26.5,7.75c-3.15-.67-4.52-3.43-2.9-6.6A13.79,13.79,0,0,1,124.78,363.55Z" transform="translate(0.5 -5.7)"/><g class="cls-25"><path class="cls-19" d="M124.78,363.55c6.5-3.75,19.75-6.25,28.25-12s6.25-10.75,12.5-14.75a6.35,6.35,0,0,1,7-.4c.87,3.9-5.9,18.73-22,29.15s-21.75,8.75-26.5,7.75c-3.15-.67-4.52-3.43-2.9-6.6A13.79,13.79,0,0,1,124.78,363.55Z" transform="translate(0.5 -5.7)"/></g><path class="cls-6" d="M124.78,363.55c6.5-3.75,19.75-6.25,28.25-12s6.25-10.75,12.5-14.75a6.35,6.35,0,0,1,7-.4c.87,3.9-5.9,18.73-22,29.15s-21.75,8.75-26.5,7.75c-3.15-.67-4.52-3.43-2.9-6.6A13.79,13.79,0,0,1,124.78,363.55Z" transform="translate(0.5 -5.7)"/><path class="cls-2" d="M249.36,315.73s-4.8-5.83-5.48-1.37.34,12.68,3.77,15.76,5.14-1.71,5.14-1.71l-2.06-2.74s-1.71,3.43-3.08-2.06,2.74-4.8,2.74-4.8Z" transform="translate(0.5 -5.7)"/><path class="cls-2" d="M253,337.67c2.84,2.1,12.09,2.1,14.93,0,6-4.45,5-25.95,5-25.95H248.08S247,333.22,253,337.67Z" transform="translate(0.5 -5.7)"/><path class="cls-6" d="M270.24,307.5c0-2.7-2.5-2.7-2.5-5.41s2.5-2.71,2.5-5.41-2.5-2.71-2.5-5.42,2.5-2.71,2.5-5.42-2.5-2.71-2.5-5.42" transform="translate(0.5 -5.7)"/><path class="cls-6" d="M261.65,307.5c0-2.05-2.5-2.05-2.5-4.11s2.5-2.05,2.5-4.11-2.5-2-2.5-4.11,2.5-2.06,2.5-4.12-2.5-2.05-2.5-4.11" transform="translate(0.5 -5.7)"/><path class="cls-6" d="M252.2,307.5c0-2.7-2.5-2.7-2.5-5.41s2.5-2.71,2.5-5.41-2.5-2.71-2.5-5.42,2.5-2.71,2.5-5.42-2.5-2.71-2.5-5.42" transform="translate(0.5 -5.7)"/><path class="cls-2" d="M248.08,311.72c0,.63,5.57,1.13,12.43,1.13s12.43-.5,12.43-1.13-5.56-1.13-12.43-1.13S248.08,311.09,248.08,311.72Z" transform="translate(0.5 -5.7)"/><path class="cls-12" d="M225.13,157s-1.16,12.63-1.65,16.62-1.61,15.45-2.76,19.24-7.42,10.38-8,8.86-3.71-11.83-2.47-17.95,1.62-11.44.85-13-3.54-3.31-3.54-3.31a100.43,100.43,0,0,0,9.39-5.47C221.38,159,224.52,155.65,225.13,157Z" transform="translate(0.5 -5.7)"/><g class="cls-26"><path class="cls-4" d="M209.08,168.07l1-1.94c1.83-1,4.39-2.48,6.82-4.11,4.45-3,7.59-6.37,8.2-5,0,0-1.16,12.63-1.65,16.62s-1.61,15.45-2.76,19.24a12.86,12.86,0,0,1-1.6,3.12c1.21-7.54-.11-21.16-.11-21.16Z" transform="translate(0.5 -5.7)"/><path class="cls-8" d="M209.08,168.07l1-1.94c1.83-1,4.39-2.48,6.82-4.11,4.45-3,7.59-6.37,8.2-5,0,0-1.16,12.63-1.65,16.62s-1.61,15.45-2.76,19.24a12.86,12.86,0,0,1-1.6,3.12c1.21-7.54-.11-21.16-.11-21.16Z" transform="translate(0.5 -5.7)"/></g><path class="cls-6" d="M225.13,157s-1.16,12.63-1.65,16.62-1.61,15.45-2.76,19.24-7.42,10.38-8,8.86-3.71-11.83-2.47-17.95,1.62-11.44.85-13-3.54-3.31-3.54-3.31a100.43,100.43,0,0,0,9.39-5.47C221.38,159,224.52,155.65,225.13,157Z" transform="translate(0.5 -5.7)"/><path class="cls-12" d="M225.6,158.81s-7.2,6-12.73,8.2-14,2.06-15.2-.81,2.09-25.6,4.94-31.58,5.9-6.08,10.92-6.54,15.09,3.64,16.86,8.5-.25,11.74-1.71,15.82A30.37,30.37,0,0,1,225.6,158.81Z" transform="translate(0.5 -5.7)"/><g class="cls-27"><path class="cls-4" d="M212.66,158.54c2.55-7.58,3.18-19.46,3.18-22.63,0-2.45-6.38-5.14-9.3-6.24,1.91-1.18,4.13-1.33,7-1.59,5-.45,15.09,3.64,16.86,8.5s-.25,11.74-1.71,15.82a30.37,30.37,0,0,1-3.08,6.41s-7.2,6-12.73,8.2a22.88,22.88,0,0,1-11.94,1.15C204.83,166.67,211,163.59,212.66,158.54Z" transform="translate(0.5 -5.7)"/><path class="cls-8" d="M212.66,158.54c2.55-7.58,3.18-19.46,3.18-22.63,0-2.45-6.38-5.14-9.3-6.24,1.91-1.18,4.13-1.33,7-1.59,5-.45,15.09,3.64,16.86,8.5s-.25,11.74-1.71,15.82a30.37,30.37,0,0,1-3.08,6.41s-7.2,6-12.73,8.2a22.88,22.88,0,0,1-11.94,1.15C204.83,166.67,211,163.59,212.66,158.54Z" transform="translate(0.5 -5.7)"/></g><path class="cls-6" d="M225.6,158.81s-7.2,6-12.73,8.2-14,2.06-15.2-.81,2.09-25.6,4.94-31.58,5.9-6.08,10.92-6.54,15.09,3.64,16.86,8.5-.25,11.74-1.71,15.82A30.37,30.37,0,0,1,225.6,158.81Z" transform="translate(0.5 -5.7)"/><path class="cls-6" d="M202.07,144c-.11,2.88,1.69,5.29,4,5.38s4.33-2.16,4.44-5-1.69-5.29-4-5.39S202.18,141.07,202.07,144Z" transform="translate(0.5 -5.7)"/><path class="cls-6" d="M196.41,142.86c-.11,2.88.82,5.25,2.08,5.3s2.37-2.24,2.48-5.12-.81-5.26-2.07-5.31S196.52,140,196.41,142.86Z" transform="translate(0.5 -5.7)"/><path class="cls-2" d="M201.78,142.92s-8.26,1.57-7.47,3.56,6.38,4.14,6.38,4.14" transform="translate(0.5 -5.7)"/><path class="cls-6" d="M202.28,142s-.11-1-1.39-.37" transform="translate(0.5 -5.7)"/><line class="cls-6" x1="211.28" y1="139.05" x2="226.3" y2="144.96"/><path class="cls-28" d="M210.58,139.9a3.83,3.83,0,0,0-3.75-2.26" transform="translate(0.5 -5.7)"/><line class="cls-28" x1="201.07" y1="132" x2="203.39" y2="132.88"/><path class="cls-6" d="M207.72,154.48s-3-.78-4.71,1" transform="translate(0.5 -5.7)"/><path class="cls-7" d="M205.78,144.5c-.14,1,0,1.86.41,1.91s.77-.72.91-1.73,0-1.85-.41-1.9S205.91,143.5,205.78,144.5Z" transform="translate(0.5 -5.7)"/><path class="cls-3" d="M224.39,150.71s1,2-1.82,2.1-4.74-1.27-3.37-3,3.4-3.35,1.31-5.61-6.15-4.16-3.87-6.68,10.67-.23,8.58-2.27-11.81-4.17-16.17-3.9-12.5-3.11-14.29-7.53.72-12.59,6.57-12.15,10.23,5.63,12.83,6,7.93-2.52,12.4,0,4.62,9.76,5,10.65,6.45,2.21,7.51,8.34a16.34,16.34,0,0,1-4.24,13.77c-2.5,2.73-3.63,3.77-3.63,3.77Z" transform="translate(0.5 -5.7)"/><path class="cls-29" d="M237.12,139.63a4.71,4.71,0,0,1-.65,2.66" transform="translate(0.5 -5.7)"/><path class="cls-29" d="M211.62,123.8s2.19-4.77-3.38-4.77-6.36,7-.6,9.54,18.29,3.18,25.05,6.17a8.91,8.91,0,0,1,3.45,2.43" transform="translate(0.5 -5.7)"/><path class="cls-29" d="M221.69,140.74c2,.72,4.59,1.72,7.23,2.94,5.56,2.59,4.37,5.17,4.37,5.17" transform="translate(0.5 -5.7)"/><path class="cls-29" d="M218,139.51s.49.14,1.32.41" transform="translate(0.5 -5.7)"/><path class="cls-12" d="M223.44,152.85s3.23-4.66,6.64-2.79.75,8.52-1.3,10.83-6-2-6.41-3.08" transform="translate(0.5 -5.7)"/><g class="cls-30"><path class="cls-4" d="M223.44,152.85s3.23-4.66,6.64-2.79.75,8.52-1.3,10.83-6-2-6.41-3.08" transform="translate(0.5 -5.7)"/><path class="cls-8" d="M223.44,152.85s3.23-4.66,6.64-2.79.75,8.52-1.3,10.83-6-2-6.41-3.08" transform="translate(0.5 -5.7)"/></g><path class="cls-6" d="M223.44,152.85s3.23-4.66,6.64-2.79.75,8.52-1.3,10.83-6-2-6.41-3.08" transform="translate(0.5 -5.7)"/><rect class="cls-2" x="259.12" y="148.6" width="81.92" height="62.64" rx="5.12" transform="translate(600.65 354.13) rotate(-180)"/><polyline class="cls-2" points="261.18 187.96 213.18 200.46 261.18 176.96"/><rect class="cls-1" x="315.13" y="154.62" width="19.27" height="50.6" transform="translate(650.04 354.13) rotate(-180)"/><rect class="cls-1" x="263.37" y="154.62" width="2.41" height="50.6" transform="translate(529.64 354.13) rotate(-180)"/><rect class="cls-3" x="263.37" y="177.75" width="2.41" height="4.32" transform="translate(529.64 354.13) rotate(-180)"/><line class="cls-2" x1="309.61" y1="150.12" x2="271.66" y2="150.12"/><line class="cls-2" x1="309.61" y1="155.54" x2="271.66" y2="155.54"/><line class="cls-2" x1="309.61" y1="160.96" x2="271.66" y2="160.96"/><line class="cls-2" x1="309.61" y1="166.38" x2="271.66" y2="166.38"/><line class="cls-2" x1="309.61" y1="179.64" x2="271.66" y2="179.64"/><line class="cls-2" x1="309.61" y1="184.45" x2="271.66" y2="184.45"/><line class="cls-2" x1="309.61" y1="189.27" x2="271.66" y2="189.27"/><line class="cls-2" x1="309.61" y1="199.27" x2="271.66" y2="199.27"/><line class="cls-6" x1="334.91" y1="199.51" x2="315.63" y2="148.92"/></g><g id="Plants"><ellipse class="cls-4" cx="44.49" cy="332.04" rx="16.73" ry="7.5"/><ellipse class="cls-8" cx="44.49" cy="332.04" rx="16.73" ry="7.5"/><path class="cls-7" d="M63.56,226.76c-1.79.78-6.17.68-6.18.68s.94-2.87,1-3c1-2,4-5.33,6.47-5a3,3,0,0,1,2.37,3.7C66.84,224.82,65.08,226.09,63.56,226.76Z" transform="translate(0.5 -5.7)"/><path class="cls-7" d="M3.73,215.49c.36,1.72,2.08,3,3.59,3.75s5.07.83,5.95.84c.48.57,1,1.18,1.52,1.86.94,1.21,2,2.58,3,4.16.28.41.56.87.84,1.32-.63-.65-1.51-1.52-1.6-1.6-1.74-1.39-5.93-3-8-1.67a3,3,0,0,0-.52,4.37c1.12,1.36,3.25,1.74,4.92,1.67s5-1.65,5.69-2c.62,1,1.22,2,1.79,3.12a38.68,38.68,0,0,1,2.61,6.24c0,.12.06.26.1.38-.26-.37-1.81-2.32-1.94-2.44-1.58-1.57-5.55-3.68-7.77-2.54a3,3,0,0,0-1,4.28c1,1.48,3,2.09,4.7,2.2,1.91.14,5.87-1.35,6-1.41a52.68,52.68,0,0,1,1.44,6.59c.25,1.64.45,3.32.63,5-.35-.48-1.79-2.29-1.91-2.41-1.58-1.57-5.56-3.68-7.77-2.53a3,3,0,0,0-1,4.28c1,1.47,3.05,2.08,4.71,2.2,1.86.13,5.66-1.28,6-1.4l.24,2.29c.24,2.51.48,5,.78,7.5.11.85.25,1.69.38,2.54-.54-.7-1.55-2-1.65-2.06-1.57-1.57-5.55-3.68-7.77-2.53a3,3,0,0,0-1,4.28c1,1.47,3,2.08,4.7,2.2s4.89-1,5.79-1.33c.23,1.4.49,2.78.81,4.13.16.58.27,1.18.45,1.73s.33,1.11.49,1.65c.38,1.12.73,2.16,1.1,3.18.19.53.38,1,.57,1.52-.44-.79-1.16-2-1.24-2.14-1.32-1.79-4.93-4.48-7.3-3.68a3,3,0,0,0-1.63,4.08c.73,1.6,2.7,2.52,4.32,2.88,1.79.41,5.63-.37,6.1-.47.46,1.23.93,2.43,1.39,3.54,1.44,3.51,2.77,6.39,3.73,8.39l.15.32h-7l2.41,47.1a6.73,6.73,0,0,0,6.72,6.39h0a6.74,6.74,0,0,0,6.73-6.39l2.41-47.1H40c0-.33.08-.67.12-1.06.25-2.18.66-5.29,1.31-9,.19-1.07.4-2.2.63-3.36.49.07,4.37.55,6.12,0,1.59-.49,3.48-1.55,4.09-3.2a3,3,0,0,0-1.93-3.95c-2.42-.62-5.82,2.33-7,4.22-.07.12-.81,1.64-1.17,2.43.15-.7.29-1.39.45-2.12.22-1,.49-2.14.75-3.21.15-.55.3-1.1.46-1.66s.35-1.09.53-1.64c.27-.81.6-1.63.92-2.45,1.05.29,4.15,1.1,5.75.86s3.67-1,4.52-2.54a3,3,0,0,0-1.31-4.2c-2.29-1-6.1,1.43-7.56,3.11L46,261c.34-.79.67-1.58,1-2.37,1-2.23,2.19-4.47,3.32-6.73.24-.47.47-.94.7-1.41.89.25,4.24,1.15,5.91.91s3.68-1,4.52-2.55a3,3,0,0,0-1.3-4.2c-2.3-1-6.11,1.43-7.56,3.11-.06.06-.38.53-.74,1,.6-1.23,1.18-2.47,1.72-3.72A53.2,53.2,0,0,0,56,238.49c.31.09,4.22,1.22,6.07.95,1.65-.24,3.68-1,4.53-2.55a2.94,2.94,0,0,0-1.31-4.19c-2.29-1-6.1,1.42-7.56,3.11-.1.12-1.26,1.81-1.65,2.42l0-.08a38.68,38.68,0,0,0,1.13-6.75,53.25,53.25,0,0,0,.14-6.11c0-1.9-.2-3.63-.35-5.16-.09-.82-.18-1.58-.28-2.28l0,0s.88-2.89.91-3.08c.37-2.2-.22-6.66-2.43-7.8a3,3,0,0,0-4.07,1.67c-.64,1.63.06,3.68.93,5.1s3.77,3.5,4.5,4c.08.74.17,1.52.24,2.39.12,1.53.24,3.26.24,5.14,0,.5,0,1.05,0,1.57-.17-.89-.42-2.1-.46-2.22-.69-2.11-3.26-5.81-5.76-5.8A3,3,0,0,0,48,222.19c.18,1.76,1.75,3.25,3.18,4.11s5.07,1.38,5.85,1.47c0,1.16-.1,2.36-.24,3.59A36.87,36.87,0,0,1,55.54,238c0,.13-.09.25-.13.38,0-.45-.23-2.93-.26-3.11-.45-2.18-2.61-6.13-5.09-6.4a3,3,0,0,0-3.18,3c0,1.76,1.38,3.41,2.7,4.43,1.52,1.16,5.65,2.1,5.8,2.14A52.33,52.33,0,0,1,53,244.75c-.7,1.52-1.46,3-2.24,4.53,0-.59-.23-2.9-.27-3.06-.45-2.18-2.6-6.13-5.08-6.4a3,3,0,0,0-3.19,3c0,1.76,1.39,3.42,2.71,4.43,1.48,1.14,5.43,2.06,5.76,2.13-.35.69-.7,1.37-1.06,2-1.18,2.23-2.37,4.45-3.48,6.68-.39.78-.74,1.55-1.09,2.33-.07-.88-.21-2.48-.24-2.62-.45-2.18-2.6-6.13-5.08-6.4a3,3,0,0,0-3.19,3c0,1.76,1.39,3.42,2.71,4.43s4.62,1.86,5.56,2.08c-.58,1.3-1.13,2.6-1.61,3.9-.19.57-.42,1.13-.58,1.69s-.33,1.1-.5,1.65c-.3,1.13-.58,2.19-.83,3.26-.14.54-.25,1-.37,1.57.07-.9.16-2.33.15-2.47-.11-2.22-1.64-6.45-4.05-7.09a2.94,2.94,0,0,0-3.61,2.5,3.63,3.63,0,0,0,0,.65,11.46,11.46,0,0,0-1.53,5.58c0,.14.23,1.82.36,2.68-.26-.66-.53-1.32-.8-2-.39-1-.77-2.07-1.14-3.1-.18-.54-.35-1.08-.53-1.64s-.31-1.1-.47-1.66c-.21-.83-.39-1.69-.58-2.55,1-.33,4.07-1.37,5.27-2.45s2.52-2.86,2.37-4.62a2.94,2.94,0,0,0-3.4-2.77c-2.46.45-4.31,4.55-4.59,6.76,0,.07,0,.54,0,1.1-.16-.84-.31-1.68-.44-2.54-.35-2.45-.64-5-.94-7.45-.06-.52-.13-1-.2-1.56.88-.28,4.17-1.38,5.43-2.51s2.51-2.86,2.37-4.62a3,3,0,0,0-3.41-2.77c-2.45.45-4.3,4.55-4.59,6.76,0,.08,0,.64,0,1.28-.18-1.36-.38-2.71-.62-4a52.41,52.41,0,0,0-1.64-6.78c.31-.09,4.19-1.3,5.59-2.55,1.24-1.11,2.52-2.87,2.37-4.62a3,3,0,0,0-3.4-2.78c-2.46.45-4.31,4.56-4.59,6.76,0,.16-.06,2.21,0,2.94l0-.08a38.45,38.45,0,0,0-2.77-6.26,53.33,53.33,0,0,0-3.26-5.18c-1.08-1.56-2.16-2.91-3.13-4.1-.54-.64-1-1.22-1.5-1.75h.05s-.86-2.89-.94-3.07c-.91-2-3.85-5.43-6.33-5.17A3,3,0,0,0,3.73,215.49Zm28.61,59.85a21.56,21.56,0,0,0,5-3.2,34.39,34.39,0,0,0,3.41,1.6c-.29,1.28-.56,2.54-.79,3.72-.74,3.72-1.22,6.85-1.52,9.05-.07.47-.12.89-.17,1.27h-.17l-.54-1.07c-1-1.95-2.37-4.77-3.87-8.22C33.22,277.5,32.78,276.44,32.34,275.34Z" transform="translate(0.5 -5.7)"/><path class="cls-7" d="M19.27,227.72s-.8-2.91-.83-3.1c-.3-2.21.4-6.65,2.65-7.74a3,3,0,0,1,4,1.78c.6,1.66-.16,3.69-1.06,5.09C23,225.39,19.27,227.72,19.27,227.72Z" transform="translate(0.5 -5.7)"/></g></svg>