<svg id="Capa_1" enable-background="new 0 0 512 512" height="512" viewBox="0 0 512 512" width="512" xmlns="http://www.w3.org/2000/svg" xmlns:xlink="http://www.w3.org/1999/xlink"><linearGradient id="SVGID_1_" gradientUnits="userSpaceOnUse" x1="273.922" x2="273.922" y1="137.01" y2="495.78"><stop offset=".00000036422" stop-color="#a8abff"/><stop offset="1" stop-color="#fac8ff"/></linearGradient><linearGradient id="SVGID_2_" gradientUnits="userSpaceOnUse" x1="256" x2="256" y1="0" y2="512"><stop offset=".00000011981" stop-color="#174fa3"/><stop offset="1" stop-color="#b044af"/></linearGradient><g id="Filled_33_"><g fill="#fff"><path d="m302.666 278.52v-46.003h78.006l-78.006-79.006v-122.009c0-13.256-10.746-24.002-24.002-24.002h-247.018c-13.256 0-24.002 10.746-24.002 24.002v247.018c0 13.256 10.746 24.002 24.002 24.002h247.018c13.256 0 24.002-10.746 24.002-24.002z"/><path d="m296.984 378.669v48.683l51.338 24.771 37.877-32.21z"/><path d="m499.852 172.863c11.389-24.757.552-54.06-24.205-65.449-24.757-11.389-54.06-.552-65.449 24.205l-22.584 49.282 89.581 41.211z"/></g><path d="m296.984 427.352 51.339 24.77-51.339 43.657zm90.63-246.45-90.63 197.768 89.215 41.244 90.996-197.801zm-280.962-25.891c0 9.942-8.059 18.001-18.001 18.001s-18.001-8.059-18.001-18.001 8.059-18.001 18.001-18.001 18.001 8.059 18.001 18.001zm53.004-18.001c-9.942 0-18.001 8.059-18.001 18.001s8.059 18.001 18.001 18.001 18.001-8.059 18.001-18.001-8.06-18.001-18.001-18.001zm71.005 0c-9.942 0-18.001 8.059-18.001 18.001s8.059 18.001 18.001 18.001 18.001-8.059 18.001-18.001-8.059-18.001-18.001-18.001z" fill="url(#SVGID_1_)"/><path d="m310.166 278.52v-38.503h88.451l-88.451-89.586v-118.929c0-17.37-14.131-31.502-31.502-31.502h-247.018c-17.37 0-31.502 14.132-31.502 31.502v247.018c0 17.37 14.132 31.502 31.502 31.502h247.018c17.371 0 31.502-14.131 31.502-31.502zm-15.001 0c0 9.098-7.402 16.501-16.501 16.501h-247.018c-9.099 0-16.501-7.403-16.501-16.501v-247.018c0-9.098 7.402-16.501 16.501-16.501h247.018c9.099 0 16.501 7.403 16.501 16.501v125.088l67.56 68.426h-67.56zm183.618-177.916c-28.537-13.131-62.266-.679-75.408 27.892l-29.522 64.432 13.638 6.249 3.813-8.322 15.437 7.102-8.866 19.272 13.628 6.27 8.866-19.272 17.73 8.157-84.696 184.106-17.715-8.19 58.929-128.095-13.628-6.27-58.918 128.071-15.154-7.006 53.63-117.029-13.638-6.249-57.425 125.31v134.968l102.839-87.45 114.342-248.556c13.084-28.468.577-62.288-27.882-75.39zm-174.297 289.796 67.918 31.398-25.221 21.446-42.697-20.601zm0 48.9 30.2 14.572-30.2 25.681zm78.041-29.347-15.507-7.169 84.708-184.131 15.518 7.139zm110.509-240.226-19.522 42.436-75.963-34.946 19.456-42.463c9.666-21.012 34.487-30.19 55.504-20.524 20.949 9.646 30.155 34.543 20.525 55.497zm-404.386-40.218c-14.062 0-25.502 11.44-25.502 25.502s11.44 25.502 25.502 25.502 25.502-11.44 25.502-25.502c0-14.061-11.44-25.502-25.502-25.502zm0 36.003c-5.79 0-10.501-4.71-10.501-10.501 0-5.79 4.711-10.501 10.501-10.501s10.501 4.71 10.501 10.501-4.711 10.501-10.501 10.501zm71.006-36.003c-14.062 0-25.502 11.44-25.502 25.502s11.44 25.502 25.502 25.502 25.502-11.44 25.502-25.502c-.001-14.061-11.441-25.502-25.502-25.502zm0 36.003c-5.79 0-10.501-4.71-10.501-10.501 0-5.79 4.711-10.501 10.501-10.501s10.501 4.71 10.501 10.501c-.001 5.791-4.711 10.501-10.501 10.501zm71.005-36.003c-14.062 0-25.502 11.44-25.502 25.502s11.44 25.502 25.502 25.502 25.502-11.44 25.502-25.502c0-14.061-11.441-25.502-25.502-25.502zm0 36.003c-5.79 0-10.501-4.71-10.501-10.501 0-5.79 4.711-10.501 10.501-10.501s10.501 4.71 10.501 10.501c-.001 5.791-4.711 10.501-10.501 10.501z" fill="url(#SVGID_2_)"/></g></svg>