<svg xmlns="http://www.w3.org/2000/svg" xmlns:xlink="http://www.w3.org/1999/xlink" viewBox="0 0 455.81 463.75"><defs><style>.cls-1{isolation:isolate;}.cls-2{opacity:0.27;fill:url(#Degradado_sin_nombre_5);}.cls-3{opacity:0.21;}.cls-4{fill:#fff;}.cls-7{fill: #485763;}.cls-5{fill:#dadada;}.cls-6{fill:#1d71b8;opacity:0.37;mix-blend-mode:multiply;}.cls-7{font-size:87.15px;font-family:Phosphate-Inline, Phosphate;}.cls-8{fill:#1e223f;}.cls-9{fill:#ff9c92;}.cls-10{fill:#3e1156;}.cls-11{fill:#1d1d1b;}.cls-12{fill:#ffbbb0;}.cls-13{fill:#292b51;}.cls-14{fill:#662483;}.cls-15{fill:#b2b2b2;}.cls-16{fill:#706f6f;}.cls-17,.cls-28{fill:none;stroke-miterlimit:10;}.cls-17{stroke:#1d1d1b;}.cls-18{fill:#ff6252;}.cls-19{fill:#ce3e3e;}.cls-20{fill:#ff7d7d;}.cls-21{fill:#b17f4a;}.cls-22{fill:#936037;}.cls-23{fill:#e6332a;}.cls-24{fill:#f9b233;}.cls-25{fill:#74c8d6;}.cls-26{fill:#fadd74;}.cls-27{opacity:0.38;}.cls-28{stroke:#36a9e1;stroke-linecap:round;stroke-width:2px;}</style><linearGradient id="Degradado_sin_nombre_5" x1="231.04" y1="82.38" x2="231.04" y2="243.34" gradientUnits="userSpaceOnUse"><stop offset="0" stop-color="#fff"/><stop offset="0.17" stop-color="#fff" stop-opacity="0.77"/><stop offset="0.4" stop-color="#fff" stop-opacity="0.5"/><stop offset="0.6" stop-color="#fff" stop-opacity="0.29"/><stop offset="0.78" stop-color="#fff" stop-opacity="0.13"/><stop offset="0.92" stop-color="#fff" stop-opacity="0.04"/><stop offset="1" stop-color="#fff" stop-opacity="0"/></linearGradient></defs><g class="cls-1"><g id="OBJECTS"><rect class="cls-2" x="73.67" y="82.38" width="314.75" height="160.96"/><g class="cls-3"><path class="cls-4" d="M174.94,256.07,100.32,256a3.63,3.63,0,0,1-3.62-3.63l.21-138.9a3.65,3.65,0,0,1,3.63-3.62l74.63.12a3.63,3.63,0,0,1,3.62,3.63l-.22,138.9A3.64,3.64,0,0,1,174.94,256.07Z" transform="translate(-6.05 -11.67)"/><rect class="cls-5" x="103.06" y="119.36" width="67.2" height="5.76" transform="translate(-5.86 -11.88) rotate(0.09)"/><rect class="cls-5" x="103.04" y="130.12" width="67.2" height="5.76" transform="matrix(1, 0, 0, 1, -5.85, -11.88)"/><rect class="cls-5" x="103.02" y="140.84" width="28.48" height="5.76" transform="translate(-5.83 -11.85) rotate(0.09)"/><rect class="cls-5" x="103.01" y="151.62" width="67.2" height="5.76" transform="translate(-5.81 -11.88) rotate(0.09)"/><rect class="cls-5" x="102.99" y="162.38" width="67.2" height="5.76" transform="translate(-5.8 -11.88) rotate(0.09)"/><rect class="cls-5" x="102.99" y="180.05" width="67.2" height="5.76" transform="translate(-5.77 -11.88) rotate(0.09)"/><rect class="cls-5" x="102.99" y="191.05" width="67.2" height="5.76" transform="translate(-5.75 -11.88) rotate(0.09)"/><rect class="cls-5" x="102.99" y="202.05" width="67.2" height="5.76" transform="translate(-5.73 -11.88) rotate(0.09)"/><rect class="cls-5" x="102.99" y="213.04" width="67.2" height="5.76" transform="translate(-5.72 -11.88) rotate(0.09)"/><rect class="cls-5" x="102.99" y="224.04" width="67.2" height="5.76" transform="translate(-5.7 -11.88) rotate(0.09)"/><rect class="cls-5" x="102.99" y="235.04" width="67.2" height="5.76" transform="translate(-5.68 -11.88) rotate(0.09)"/></g><g class="cls-3"><path class="cls-4" d="M296.86,109.86h74.62a3.63,3.63,0,0,1,3.63,3.63v97.16a3.63,3.63,0,0,1-3.63,3.63H296.86a3.63,3.63,0,0,1-3.63-3.63V113.48a3.62,3.62,0,0,1,3.62-3.62Z" transform="translate(-5.8 -12.19) rotate(0.09)"/><rect class="cls-5" x="299.46" y="119.36" width="67.2" height="5.76" transform="translate(-5.86 -12.19) rotate(0.09)"/><rect class="cls-5" x="299.44" y="130.12" width="67.2" height="5.76" transform="translate(-5.85 -12.19) rotate(0.09)"/><rect class="cls-5" x="299.43" y="140.84" width="28.48" height="5.76" transform="translate(-5.83 -12.16) rotate(0.09)"/><rect class="cls-5" x="299.41" y="151.62" width="67.2" height="5.76" transform="translate(-5.81 -12.19) rotate(0.09)"/><rect class="cls-5" x="299.39" y="162.38" width="67.2" height="5.76" transform="translate(-5.79 -12.19) rotate(0.09)"/><rect class="cls-5" x="299.39" y="180.05" width="67.2" height="5.76" transform="translate(-5.77 -12.19) rotate(0.09)"/><rect class="cls-5" x="299.39" y="191.05" width="67.2" height="5.76" transform="translate(-5.75 -12.19) rotate(0.09)"/><rect class="cls-5" x="299.39" y="202.05" width="67.2" height="5.76" transform="translate(-5.73 -12.19) rotate(0.09)"/></g><path class="cls-6" d="M456.44,401.57c0,6.91-99.39,12.51-222,12.51s-222-5.6-222-12.51,99.4-12.5,222-12.5S456.44,394.67,456.44,401.57Z" transform="translate(-6.05 -11.67)"/><text class="cls-7" transform="translate(25.57 385.98)"><tspan xml:space="preserve">   WeBlog</tspan></text><circle class="cls-4" cx="198.77" cy="251.88" r="9.32" transform="translate(-122.19 178.66) rotate(-40.66)"/><path class="cls-8" d="M183.31,301.75c-4.84.73-17.05,8.26-28.75,14.58,0,0-3.64,11.39-2.14,3.72l-.9-.21c-.68,2.29.11-3.28-.42-.95-1.11,4.83-2,9.62-3.51,14.37a60.86,60.86,0,0,0-2.18,10.87c.84-.25,1.66-.54,2.45-.86h0c7.76-3,18.28-7.74,23.14-13.19,0,0,3.83,14.28,3.61,19-.09,1.92-.21,4.68-.31,7.27a58.1,58.1,0,0,1,6.23,2c3-8.49,11.3-32.88,11.65-42.78C192.61,303.51,188.34,301,183.31,301.75Z" transform="translate(-6.05 -11.67)"/><path class="cls-9" d="M172,312.19l17.41-2.39a1.57,1.57,0,0,0-1.17-1.56l-8-2a1.51,1.51,0,0,0-.94.06L174.7,308l-.26.83C175.15,309.67,171.89,311.12,172,312.19Z" transform="translate(-6.05 -11.67)"/><polygon class="cls-9" points="124.51 262.78 124.51 273.63 138.73 271.42 138.99 263.92 124.51 262.78"/><path class="cls-9" d="M172.27,312.09l3.11-3.49-34-28.37h0a6.59,6.59,0,0,0-8.57,10c.16.14.33.27.49.39h0l.35.23a5.52,5.52,0,0,0,.75.42l37.31,20.89A.49.49,0,0,0,172.27,312.09Z" transform="translate(-6.05 -11.67)"/><path class="cls-10" d="M126.08,320.33s-5.71-1.9-11.11-.3,1.78,8.65,7.49,7.92S126.08,320.33,126.08,320.33Z" transform="translate(-6.05 -11.67)"/><path class="cls-4" d="M174.39,355.59l-1.17,4.75c0,1.27,2.39,3.78,3.65,3.69l2-.15.05-9.73Z" transform="translate(-6.05 -11.67)"/><path d="M173.22,360.34s-3.56,2.3-3.3,5.32,20,6.64,20,6.64.82-.23-.26-1.11l-8-5.92s-3.18-3.15-5.23-3.41A7.35,7.35,0,0,1,173.22,360.34Z" transform="translate(-6.05 -11.67)"/><circle class="cls-11" cx="127.67" cy="241.66" r="9.13" transform="translate(-141.88 157.41) rotate(-46.75)"/><circle class="cls-11" cx="129.42" cy="239.12" r="9.13"/><path class="cls-11" d="M138.83,230.23a9.13,9.13,0,1,1-9.13-9.13A9.12,9.12,0,0,1,138.83,230.23Z" transform="translate(-6.05 -11.67)"/><circle class="cls-11" cx="133.64" cy="211.73" r="9.13"/><path class="cls-11" d="M158,221.1a9.13,9.13,0,1,1-9.13-9.13A9.13,9.13,0,0,1,158,221.1Z" transform="translate(-6.05 -11.67)"/><path class="cls-11" d="M169.06,230.23a9.13,9.13,0,1,1-9.12-9.13A9.12,9.12,0,0,1,169.06,230.23Z" transform="translate(-6.05 -11.67)"/><path class="cls-11" d="M153.72,233.24a9.13,9.13,0,1,1-9.12-9.13A9.12,9.12,0,0,1,153.72,233.24Z" transform="translate(-6.05 -11.67)"/><path class="cls-4" d="M177.18,360.11,175,364.47c-.26,1.25,1.47,4.22,2.72,4.42l2,.32,2.25-9.47Z" transform="translate(-6.05 -11.67)"/><path d="M175,364.47s-4,1.44-4.42,4.44,18,11,18,11,.85,0,0-1.15l-6.43-7.57s-2.39-3.78-4.32-4.5A7.4,7.4,0,0,1,175,364.47Z" transform="translate(-6.05 -11.67)"/><path class="cls-12" d="M134.18,250.24a4.63,4.63,0,0,1-4.55-4.71,5,5,0,0,1,5.09-4.57" transform="translate(-6.05 -11.67)"/><path class="cls-13" d="M195.69,310.93A104.06,104.06,0,0,0,164.31,315l-.06-.07-42.77,5.3a20,20,0,0,0-1.43,6.44c0,10.38,11.11,18.79,24.82,18.79a32.81,32.81,0,0,0,5.94-.54h0c8.6-1.43,20.4-4.11,26.51-8.53,0,0,1.08,14.74-.08,19.31-.48,1.87-1.16,4.55-1.79,7.08a59.69,59.69,0,0,1,6,3.19c4.79-7.76,18.24-30.12,20.59-39.77C204.92,314.43,201,311.14,195.69,310.93Z" transform="translate(-6.05 -11.67)"/><path class="cls-14" d="M113.74,324.09s1.11-5.63,13.25-3.3,26.41-.09,32.34-5.25c0,0,3.74-16.18-6.8-28.52a12.16,12.16,0,0,1-2.88-9.68l.2-1.29a13.22,13.22,0,0,0-4.07-11.5l-7.63-7.31S96.36,287.7,113.74,324.09Z" transform="translate(-6.05 -11.67)"/><line class="cls-4" x1="204.82" y1="260.37" x2="191.52" y2="296.3"/><path class="cls-5" d="M197.67,308.7a.76.76,0,0,1-.36,0,.74.74,0,0,1-.43-1l13.3-35.92a.74.74,0,1,1,1.38.51l-13.3,35.93A.75.75,0,0,1,197.67,308.7Z" transform="translate(-6.05 -11.67)"/><rect class="cls-15" x="162.75" y="311.05" width="36.14" height="1.93" rx="0.66" transform="matrix(0.99, -0.14, 0.14, 0.99, -47.55, 16.4)"/><rect class="cls-16" x="194.24" y="309.54" width="2.67" height="0.83" transform="translate(-47.12 18.42) rotate(-7.97)"/><rect class="cls-16" x="190.41" y="310.07" width="2.67" height="0.83" transform="translate(-47.23 17.9) rotate(-7.97)"/><rect class="cls-16" x="167.92" y="313.22" width="2.67" height="0.83" transform="translate(-47.88 14.81) rotate(-7.97)"/><path class="cls-16" d="M164.51,314.3a.41.41,0,0,1-.35.47.42.42,0,0,1-.47-.36.41.41,0,0,1,.36-.46A.4.4,0,0,1,164.51,314.3Z" transform="translate(-6.05 -11.67)"/><path class="cls-16" d="M166.61,314a.41.41,0,1,1-.47-.36A.41.41,0,0,1,166.61,314Z" transform="translate(-6.05 -11.67)"/><path class="cls-12" d="M167.87,312.85l17.41-2.39a1.57,1.57,0,0,0-1.17-1.56l-8-2a1.54,1.54,0,0,0-1,.06l-4.61,1.78-.26.83C171,310.33,167.78,311.78,167.87,312.85Z" transform="translate(-6.05 -11.67)"/><polygon class="cls-12" points="120.4 263.44 120.4 274.29 134.62 272.08 134.88 264.58 120.4 263.44"/><path class="cls-12" d="M168.16,312.75l3.11-3.49-34-28.38v0a6.59,6.59,0,0,0-8.57,10,6.12,6.12,0,0,0,.5.39h0l.34.23a5.52,5.52,0,0,0,.75.42l37.32,20.89A.48.48,0,0,0,168.16,312.75Z" transform="translate(-6.05 -11.67)"/><path class="cls-12" d="M135.48,232.07l-3,31.67c.89.28,1.78.58,2.69.82,1.16.31,2.35.64,3.48,1.05.46.17,1,.35,1.46.57a4.3,4.3,0,0,1,1.73-.88,5,5,0,0,1,1.92-.36h.1l-.07-2.62,8.71-3.08a8.76,8.76,0,0,0,5.85-8l.57-18.74Z" transform="translate(-6.05 -11.67)"/><path class="cls-4" d="M130.07,264.3c.2-.2,2.83-5,2.83-5L143.05,265l-.57,4.29a.68.68,0,0,1-1,.52Z" transform="translate(-6.05 -11.67)"/><path class="cls-4" d="M143.05,265l.79-3.24,1.94,2.84v1.6a.68.68,0,0,1-1.18.46L143.05,265Z" transform="translate(-6.05 -11.67)"/><path class="cls-14" d="M141.33,282.41H124.47v-6.17a8.43,8.43,0,0,1,8.43-8.44h0a8.44,8.44,0,0,1,8.43,8.44Z" transform="translate(-6.05 -11.67)"/><path class="cls-11" d="M143.57,232.53a9.13,9.13,0,1,1-9.13-9.13A9.13,9.13,0,0,1,143.57,232.53Z" transform="translate(-6.05 -11.67)"/><circle class="cls-11" cx="145.88" cy="226.34" r="9.13" transform="translate(-123.37 157.78) rotate(-45)"/><path class="cls-11" d="M167.87,227.13a9.13,9.13,0,1,1-9.13-9.13A9.13,9.13,0,0,1,167.87,227.13Z" transform="translate(-6.05 -11.67)"/><path class="cls-11" d="M150.38,241.88c0,1.05-.51,1.91-1.16,1.92S148,243,148,241.91s.51-1.92,1.16-1.92S150.37,240.83,150.38,241.88Z" transform="translate(-6.05 -11.67)"/><path class="cls-11" d="M156.85,241.64c0,1.06-.51,1.92-1.16,1.92s-1.2-.84-1.21-1.89.51-1.91,1.16-1.92S156.84,240.59,156.85,241.64Z" transform="translate(-6.05 -11.67)"/><path class="cls-17" d="M151.3,241.1c0,3.12-1.87,5.64-4.18,5.64S143,244.22,143,241.1s1.87-5.64,4.17-5.64S151.3,238,151.3,241.1Z" transform="translate(-6.05 -11.67)"/><path class="cls-17" d="M162,241.1c0,3.12-1.82,5.64-4.07,5.64s-4.07-2.52-4.07-5.64,1.83-5.64,4.07-5.64S162,238,162,241.1Z" transform="translate(-6.05 -11.67)"/><polygon class="cls-18" points="146.56 225.88 152.87 235.93 146.35 236.89 146.56 225.88"/><line class="cls-17" x1="144.33" y1="225.91" x2="148.96" y2="225.54"/><line class="cls-17" x1="128.38" y1="227.68" x2="137.1" y2="227.68"/><path class="cls-19" d="M152.61,251.66a6,6,0,0,1,2.46-.66,2.14,2.14,0,0,1,2.35,1.91c.16,1.42-1.26,2.4-3,3.18-1,.47-4.39.89-6.17-.07s-2.7-1.69-3-2.94a2.46,2.46,0,0,1,1.67-2.77,2.66,2.66,0,0,1,2.42.61A3.12,3.12,0,0,0,152.61,251.66Z" transform="translate(-6.05 -11.67)"/><path class="cls-20" d="M156.19,255.11a5.49,5.49,0,0,0-3.43-.71,5.89,5.89,0,0,0-4,1.85,9.34,9.34,0,0,0,4.7.17A6.18,6.18,0,0,0,156.19,255.11Z" transform="translate(-6.05 -11.67)"/><circle class="cls-21" cx="309" cy="222.27" r="11.72"/><path class="cls-8" d="M285.57,302c4.85.74,17.05,8.27,28.75,14.59,0,0,3.64,11.39,2.15,3.71l.9-.2c.68,2.29-.12-3.28.42-.95,1.1,4.83,2,9.62,3.51,14.36a60.24,60.24,0,0,1,2.17,10.88c-.83-.26-1.65-.54-2.44-.86h0c-7.76-3-18.28-7.74-23.13-13.19,0,0-3.83,14.27-3.61,19,.09,1.93.2,4.69.31,7.28a59,59,0,0,0-6.24,2c-3-8.49-11.29-32.88-11.64-42.78C276.28,303.72,280.55,301.2,285.57,302Z" transform="translate(-6.05 -11.67)"/><path class="cls-4" d="M294.49,355.81l1.18,4.75c0,1.27-2.39,3.78-3.66,3.69l-2-.15-.05-9.74Z" transform="translate(-6.05 -11.67)"/><path d="M295.67,360.56s3.56,2.3,3.3,5.32-20,6.64-20,6.64-.83-.23.26-1.12l8-5.92s3.18-3.14,5.22-3.4A7.47,7.47,0,0,0,295.67,360.56Z" transform="translate(-6.05 -11.67)"/><path class="cls-22" d="M296.91,312.41,279.5,310a1.55,1.55,0,0,1,1.17-1.56l8-2a1.55,1.55,0,0,1,.95.06l4.6,1.78.26.83C293.74,309.89,297,311.34,296.91,312.41Z" transform="translate(-6.05 -11.67)"/><polygon class="cls-9" points="332.27 263 332.27 273.85 318.05 271.64 317.79 264.14 332.27 263"/><path class="cls-22" d="M296.62,312.31l-3.11-3.49,34-28.38h0a6.59,6.59,0,0,1,8.56,10,6,6,0,0,1-.49.39h0l-.34.23a5.52,5.52,0,0,1-.75.42l-37.32,20.89A.47.47,0,0,1,296.62,312.31Z" transform="translate(-6.05 -11.67)"/><path class="cls-5" d="M342.8,320.55s5.71-1.9,11.12-.31-1.78,8.66-7.49,7.92S342.8,320.55,342.8,320.55Z" transform="translate(-6.05 -11.67)"/><path class="cls-4" d="M291.7,360.33l2.22,4.36c.27,1.24-1.46,4.22-2.72,4.42l-2,.32L286.93,360Z" transform="translate(-6.05 -11.67)"/><path d="M293.92,364.69s4,1.43,4.42,4.43-18,11-18,11-.86,0,0-1.14l6.43-7.57s2.39-3.79,4.32-4.5A7.43,7.43,0,0,0,293.92,364.69Z" transform="translate(-6.05 -11.67)"/><path class="cls-21" d="M330.18,249.13a4.62,4.62,0,0,0,3.89-5.26,5,5,0,0,0-5.64-3.86" transform="translate(-6.05 -11.67)"/><path class="cls-13" d="M273.19,311.14a104.43,104.43,0,0,1,31.38,4.08l.07-.07,42.77,5.29a20.34,20.34,0,0,1,1.43,6.45c0,10.38-11.11,18.79-24.82,18.79a32.81,32.81,0,0,1-5.94-.54h0c-8.59-1.43-20.4-4.11-26.5-8.54,0,0-1.09,14.75.08,19.31.48,1.87,1.15,4.56,1.78,7.09a61.92,61.92,0,0,0-6,3.19c-4.78-7.76-18.24-30.12-20.58-39.77C264,314.64,267.86,311.36,273.19,311.14Z" transform="translate(-6.05 -11.67)"/><path class="cls-4" d="M355.15,324.31S354,318.68,341.89,321s-26.41-.08-32.33-5.24c0,0-3.75-16.19,6.79-28.52a12.11,12.11,0,0,0,2.88-9.69l-.19-1.28a13.2,13.2,0,0,1,4.07-11.5l7.62-7.32S372.52,287.92,355.15,324.31Z" transform="translate(-6.05 -11.67)"/><line class="cls-4" x1="251.96" y1="260.59" x2="265.26" y2="296.52"/><path class="cls-5" d="M271.21,308.92a.89.89,0,0,0,.36,0,.75.75,0,0,0,.44-.95L258.71,272a.74.74,0,1,0-1.38.51l13.29,35.92A.74.74,0,0,0,271.21,308.92Z" transform="translate(-6.05 -11.67)"/><rect class="cls-15" x="270" y="311.27" width="36.14" height="1.93" rx="0.66" transform="translate(524.04 649.71) rotate(-172.03)"/><rect class="cls-16" x="271.98" y="309.76" width="2.67" height="0.83" transform="translate(494.96 643.55) rotate(-172.03)"/><rect class="cls-16" x="275.81" y="310.29" width="2.67" height="0.83" transform="translate(502.49 645.15) rotate(-172.03)"/><rect class="cls-16" x="298.3" y="313.44" width="2.67" height="0.83" transform="translate(546.85 654.52) rotate(-172.04)"/><path class="cls-16" d="M304.37,314.52a.41.41,0,0,0,.36.46.4.4,0,0,0,.46-.35.41.41,0,1,0-.82-.11Z" transform="translate(-6.05 -11.67)"/><path class="cls-16" d="M302.28,314.22a.41.41,0,0,0,.35.47.41.41,0,1,0-.35-.47Z" transform="translate(-6.05 -11.67)"/><path class="cls-21" d="M301,313.07l-17.4-2.39a1.55,1.55,0,0,1,1.16-1.56l8-2a1.55,1.55,0,0,1,.95.06l4.6,1.78.26.83C297.85,310.55,301.11,312,301,313.07Z" transform="translate(-6.05 -11.67)"/><polygon class="cls-21" points="336.38 263.65 336.38 274.5 322.16 272.3 321.9 264.8 336.38 263.65"/><path class="cls-21" d="M300.72,313l-3.1-3.49,34-28.38h0a6.59,6.59,0,0,1,8.56,10,6,6,0,0,1-.49.39h0l-.34.23a7.06,7.06,0,0,1-.75.42l-37.32,20.89A.49.49,0,0,1,300.72,313Z" transform="translate(-6.05 -11.67)"/><path class="cls-21" d="M326.52,231.29,334,260.05l-10.41,4.73-1.32-2.42-9-1.91a8.77,8.77,0,0,1-6.84-7.18l-3-18.51Z" transform="translate(-6.05 -11.67)"/><path class="cls-4" d="M327.56,282.63h16.86v-6.18A8.43,8.43,0,0,0,336,268h0a8.43,8.43,0,0,0-8.43,8.43Z" transform="translate(-6.05 -11.67)"/><path class="cls-11" d="M312.58,241c.22,1,.92,1.75,1.56,1.61s1-1.08.75-2.11-.92-1.76-1.56-1.62S312.35,240,312.58,241Z" transform="translate(-6.05 -11.67)"/><path class="cls-11" d="M304.94,242.09c.22,1,.92,1.75,1.56,1.61s1-1.09.76-2.12-.93-1.75-1.57-1.61S304.72,241.06,304.94,242.09Z" transform="translate(-6.05 -11.67)"/><path class="cls-17" d="M301.24,240.78c0,3.11,1.82,5.64,4.06,5.64s4.07-2.53,4.07-5.64-1.82-5.64-4.07-5.64S301.24,237.66,301.24,240.78Z" transform="translate(-6.05 -11.67)"/><path class="cls-17" d="M311,239.57c0,3.12,1.83,5.64,4.07,5.64s4.07-2.52,4.07-5.64-1.82-5.64-4.07-5.64S311,236.46,311,239.57Z" transform="translate(-6.05 -11.67)"/><polygon class="cls-22" points="304.19 227.29 299.25 238.07 305.83 238.17 304.19 227.29"/><path class="cls-4" d="M311.51,252.14a5,5,0,0,0-2.07-.55,1.79,1.79,0,0,0-2,1.6c-.14,1.19,1.06,2,2.51,2.68.85.38,3.69.74,5.18-.06s2.27-1.43,2.55-2.48a2.05,2.05,0,0,0-1.4-2.32,2.25,2.25,0,0,0-2,.51A2.62,2.62,0,0,1,311.51,252.14Z" transform="translate(-6.05 -11.67)"/><line class="cls-17" x1="302.86" y1="226.51" x2="304.93" y2="226.51"/><line class="cls-17" x1="322.71" y1="228.28" x2="313.07" y2="228.28"/><path class="cls-4" d="M197.13,186.3h74.62a3.62,3.62,0,0,1,3.62,3.62v60.44a3.63,3.63,0,0,1-3.63,3.63H197.13a3.63,3.63,0,0,1-3.63-3.63V189.93a3.63,3.63,0,0,1,3.63-3.63Z" transform="translate(-5.71 -12.03) rotate(0.09)"/><rect class="cls-23" x="199.7" y="195.8" width="67.2" height="5.76" transform="translate(-5.74 -12.03) rotate(0.09)"/><rect class="cls-5" x="199.68" y="206.56" width="67.2" height="5.76" transform="translate(-5.73 -12.03) rotate(0.09)"/><rect class="cls-5" x="199.66" y="217.28" width="28.48" height="5.76" transform="translate(-5.71 -12) rotate(0.09)"/><rect class="cls-23" x="199.65" y="228.07" width="67.2" height="5.76" transform="translate(-5.69 -12.03) rotate(0.09)"/><rect class="cls-5" x="199.63" y="238.82" width="67.2" height="5.76" transform="translate(-5.68 -12.03) rotate(0.09)"/><path class="cls-4" d="M197.13,109.86h74.62a3.62,3.62,0,0,1,3.62,3.62v60.44a3.63,3.63,0,0,1-3.63,3.63H197.13a3.63,3.63,0,0,1-3.63-3.63V113.48a3.63,3.63,0,0,1,3.63-3.63Z" transform="translate(-5.83 -12.03) rotate(0.09)"/><rect class="cls-24" x="199.7" y="119.36" width="67.2" height="5.76" transform="translate(-5.86 -12.03) rotate(0.09)"/><rect class="cls-5" x="199.68" y="130.12" width="67.2" height="5.76" transform="translate(-5.85 -12.03) rotate(0.09)"/><rect class="cls-5" x="199.66" y="140.84" width="28.48" height="5.76" transform="translate(-5.83 -12) rotate(0.09)"/><rect class="cls-5" x="199.65" y="151.62" width="67.2" height="5.76" transform="translate(-5.81 -12.03) rotate(0.09)"/><rect class="cls-5" x="199.63" y="162.38" width="67.2" height="5.76" transform="translate(-5.8 -12.03) rotate(0.09)"/><path class="cls-13" d="M79.72,94.05H394.46V87.42s.26-5.41-3.48-8.65a11.86,11.86,0,0,0-7.84-3.24H91.63A11.76,11.76,0,0,0,83.26,79c-4.2,3.89-3.54,9.91-3.54,9.91Z" transform="translate(-6.05 -11.67)"/><path class="cls-23" d="M100.84,84.78a3.17,3.17,0,1,1-3.16-3.17A3.16,3.16,0,0,1,100.84,84.78Z" transform="translate(-6.05 -11.67)"/><circle class="cls-25" cx="109.77" cy="73.11" r="3.17"/><circle class="cls-26" cx="127.92" cy="73.11" r="3.17"/><path class="cls-4" d="M355.77,89.92h-202a5,5,0,0,1-5-5h0a5,5,0,0,1,5-5h202a5,5,0,0,1,5,5h0A5,5,0,0,1,355.77,89.92Z" transform="translate(-6.05 -11.67)"/><path class="cls-4" d="M195.57,293a4.14,4.14,0,1,1-4.14-4.14A4.14,4.14,0,0,1,195.57,293Z" transform="translate(-6.05 -11.67)"/><circle class="cls-4" cx="193.46" cy="272.26" r="7.48" transform="translate(-122.12 386.09) rotate(-76.67)"/><g class="cls-27"><path class="cls-28" d="M422.13,64.52a5.39,5.39,0,1,1-5.39-5.39A5.4,5.4,0,0,1,422.13,64.52Z" transform="translate(-6.05 -11.67)"/><path class="cls-28" d="M57.52,168.68a5.39,5.39,0,1,1-5.39-5.39A5.4,5.4,0,0,1,57.52,168.68Z" transform="translate(-6.05 -11.67)"/><path class="cls-28" d="M17.83,282.63a5.39,5.39,0,1,1-5.39-5.39A5.39,5.39,0,0,1,17.83,282.63Z" transform="translate(-6.05 -11.67)"/><line class="cls-28" x1="231.44" y1="1" x2="231.44" y2="9.83"/><line class="cls-28" x1="227.02" y1="5.42" x2="235.85" y2="5.42"/><line class="cls-28" x1="450.39" y1="193.6" x2="450.39" y2="202.43"/><line class="cls-28" x1="445.97" y1="198.02" x2="454.81" y2="198.02"/><line class="cls-28" x1="416.07" y1="453.91" x2="416.07" y2="462.75"/><line class="cls-28" x1="411.66" y1="458.33" x2="420.49" y2="458.33"/><line class="cls-28" x1="25.57" y1="9.83" x2="25.57" y2="18.67"/><line class="cls-28" x1="21.15" y1="14.25" x2="29.99" y2="14.25"/></g></g></g></svg>